<svg xmlns="http://www.w3.org/2000/svg" xmlns:xlink="http://www.w3.org/1999/xlink" contentStyleType="text/css" data-diagram-type="DESCRIPTION" height="575px" preserveAspectRatio="none" style="width:583px;height:575px;background:#FFFFFF;" version="1.1" viewBox="0 0 583 575" width="583px" zoomAndPan="magnify"><?plantuml 1.2026.6?><defs/><g><!--cluster H? th?ng: Ph?n h? Qu?n tr? vi?n--><g class="cluster" data-qualified-name="H. th.ng. Ph.n h. Qu.n tr. vi.n" data-source-line="21" id="ent0003"><rect fill="none" height="554" rx="2.5" ry="2.5" style="stroke:#181818;stroke-width:1;" width="316.03" x="128.04" y="7"/><text fill="#000000" font-family="'Segoe UI'" font-size="12" font-weight="700" lengthAdjust="spacing" textLength="218.1328" x="176.9886" y="20.1387">H&#7879; th&#7889;ng: Ph&#226;n h&#7879; Qu&#7843;n tr&#7883; vi&#234;n</text></g><!--entity A1--><g class="entity" data-qualified-name="H. th.ng. Ph.n h. Qu.n tr. vi.n.A1" data-source-line="22" id="ent0004"><ellipse cx="286.055" cy="520.003" fill="#FEF9E7" rx="110.965" ry="24.593" style="stroke:#F39C12;stroke-width:0.5;"/><text fill="#000000" font-family="'Segoe UI'" font-size="12" lengthAdjust="spacing" textLength="204.3223" x="183.8938" y="523.4874">UC-ADM-01: Qu&#7843;n l&#253; User &amp; RBAC</text></g><!--entity A2--><g class="entity" data-qualified-name="H. th.ng. Ph.n h. Qu.n tr. vi.n.A2" data-source-line="23" id="ent0005"><ellipse cx="286.0522" cy="429.9984" fill="#FEF9E7" rx="141.6922" ry="30.7384" style="stroke:#F39C12;stroke-width:0.5;"/><text fill="#000000" font-family="'Segoe UI'" font-size="12" lengthAdjust="spacing" textLength="268.4473" x="151.8285" y="433.4828">UC-ADM-02: Ki&#7875;m duy&#7879;t Tin &amp; Doanh nghi&#7879;p</text></g><!--entity A3--><g class="entity" data-qualified-name="H. th.ng. Ph.n h. Qu.n tr. vi.n.A3" data-source-line="24" id="ent0006"><ellipse cx="286.0483" cy="333.0037" fill="#FEF9E7" rx="142.0183" ry="30.8037" style="stroke:#F39C12;stroke-width:0.5;"/><text fill="#000000" font-family="'Segoe UI'" font-size="12" lengthAdjust="spacing" textLength="269.1211" x="151.4877" y="336.488">UC-ADM-03: Qu&#7843;n l&#253; C&#226;y K&#7929; n&#259;ng Taxonomy</text></g><!--entity A4--><g class="entity" data-qualified-name="H. th.ng. Ph.n h. Qu.n tr. vi.n.A4" data-source-line="25" id="ent0007"><ellipse cx="286.0459" cy="240.9992" fill="#FEF9E7" rx="119.1459" ry="26.2292" style="stroke:#F39C12;stroke-width:0.5;"/><text fill="#000000" font-family="'Segoe UI'" font-size="12" lengthAdjust="spacing" textLength="221.543" x="175.2744" y="244.4835">UC-ADM-04: Gi&#225;m s&#225;t T&#7843;i &amp; Token AI</text></g><!--entity A5--><g class="entity" data-qualified-name="H. th.ng. Ph.n h. Qu.n tr. vi.n.A5" data-source-line="26" id="ent0008"><ellipse cx="286.0517" cy="155.0023" fill="#FEF9E7" rx="111.2117" ry="24.6423" style="stroke:#F39C12;stroke-width:0.5;"/><text fill="#000000" font-family="'Segoe UI'" font-size="12" lengthAdjust="spacing" textLength="204.8438" x="183.6299" y="158.4867">UC-ADM-05: Ki&#7875;m to&#225;n Audit Logs</text></g><!--entity A6--><g class="entity" data-qualified-name="H. th.ng. Ph.n h. Qu.n tr. vi.n.A6" data-source-line="27" id="ent0009"><ellipse cx="286.0539" cy="66.9968" fill="#FEF9E7" rx="129.2839" ry="28.2568" style="stroke:#F39C12;stroke-width:0.5;"/><text fill="#000000" font-family="'Segoe UI'" font-size="12" lengthAdjust="spacing" textLength="242.7188" x="164.6946" y="70.4812">UC-ADM-06: B&#225;o c&#225;o Th&#7889;ng k&#234; To&#224;n s&#224;n</text></g><!--entity Admin--><g class="entity" data-qualified-name="Admin" data-source-line="18" id="ent0001"><ellipse cx="45.0176" cy="251.53" fill="#FEFECE" rx="8" ry="8" style="stroke:#A80036;stroke-width:0.5;"/><path d="M45.0176,259.53 L45.0176,286.53 M32.0176,267.53 L58.0176,267.53 M45.0176,286.53 L32.0176,301.53 M45.0176,286.53 L58.0176,301.53" fill="none" style="stroke:#A80036;stroke-width:0.5;"/><text fill="#000000" font-family="'Segoe UI'" font-size="12" lengthAdjust="spacing" textLength="78.0352" x="6" y="314.1687">Qu&#7843;n tr&#7883; vi&#234;n</text><text fill="#000000" font-family="'Segoe UI'" font-size="12" lengthAdjust="spacing" textLength="47.8184" x="6" y="328.1374">(Admin)</text></g><!--entity AI--><g class="entity" data-qualified-name="AI" data-source-line="19" id="ent0002"><ellipse cx="528.1872" cy="219.4987" fill="#FEFECE" rx="8" ry="8" style="stroke:#A80036;stroke-width:0.5;"/><path d="M528.1872,227.4987 L528.1872,254.4987 M515.1872,235.4987 L541.1872,235.4987 M528.1872,254.4987 L515.1872,269.4988 M528.1872,254.4987 L541.1872,269.4988" fill="none" style="stroke:#A80036;stroke-width:0.5;"/><text fill="#000000" font-family="'Segoe UI'" font-size="12" lengthAdjust="spacing" textLength="61.1777" x="497.5983" y="282.1374">AI Monitor</text><text fill="#000000" font-family="'Segoe UI'" font-size="12" font-style="italic" lengthAdjust="spacing" textLength="78.2344" x="489.07" y="208.1687">&#171;Secondary&#187;</text></g><!--link Admin to A1--><g class="link" data-entity-1="ent0001" data-entity-2="ent0004" data-link-type="dependency" data-source-line="30" id="lnk10"><path d="M51.4,331.1 C59.07,374.68 77.32,440.14 120.04,478 C137.85,493.78 155.9471,502.4709 179.0171,508.7809" fill="none" id="Admin-to-A1" style="stroke:#2C3E50;stroke-width:1;"/><polygon fill="#2C3E50" points="183.84,510.1,176.2142,503.8673,179.0171,508.7809,174.1036,511.5839,183.84,510.1" style="stroke:#2C3E50;stroke-width:1;stroke-linejoin:miter;stroke-miterlimit:10;"/></g><!--link Admin to A2--><g class="link" data-entity-1="ent0001" data-entity-2="ent0005" data-link-type="dependency" data-source-line="31" id="lnk11"><path d="M72.33,331.33 C84.8,349.01 101.13,368.17 120.04,381 C137.96,393.17 154.2252,400.7929 175.1352,407.7429" fill="none" id="Admin-to-A2" style="stroke:#2C3E50;stroke-width:1;"/><polygon fill="#2C3E50" points="179.88,409.32,172.601,402.6855,175.1352,407.7429,170.0778,410.2771,179.88,409.32" style="stroke:#2C3E50;stroke-width:1;stroke-linejoin:miter;stroke-miterlimit:10;"/></g><!--link Admin to A3--><g class="link" data-entity-1="ent0001" data-entity-2="ent0006" data-link-type="dependency" data-source-line="32" id="lnk12"><path d="M84.42,294.39 C110.03,299.32 140.1201,305.1048 173.7301,311.5748" fill="none" id="Admin-to-A3" style="stroke:#2C3E50;stroke-width:1;"/><polygon fill="#2C3E50" points="178.64,312.52,170.5584,306.8908,173.7301,311.5748,169.0461,314.7466,178.64,312.52" style="stroke:#2C3E50;stroke-width:1;stroke-linejoin:miter;stroke-miterlimit:10;"/></g><!--link Admin to A4--><g class="link" data-entity-1="ent0001" data-entity-2="ent0007" data-link-type="dependency" data-source-line="33" id="lnk13"><path d="M84.42,279.61 C114.25,273.87 151.92,266.6143 190.19,259.2543" fill="none" id="Admin-to-A4" style="stroke:#2C3E50;stroke-width:1;"/><polygon fill="#2C3E50" points="195.1,258.31,185.5065,256.0817,190.19,259.2543,187.0174,263.9377,195.1,258.31" style="stroke:#2C3E50;stroke-width:1;stroke-linejoin:miter;stroke-miterlimit:10;"/></g><!--link Admin to A5--><g class="link" data-entity-1="ent0001" data-entity-2="ent0008" data-link-type="dependency" data-source-line="34" id="lnk14"><path d="M73.48,242.82 C85.83,226.23 101.76,208.61 120.04,197 C141.25,183.53 161.7154,175.607 186.0754,169.387" fill="none" id="Admin-to-A5" style="stroke:#2C3E50;stroke-width:1;"/><polygon fill="#2C3E50" points="190.92,168.15,181.2102,166.5009,186.0754,169.387,183.1894,174.2522,190.92,168.15" style="stroke:#2C3E50;stroke-width:1;stroke-linejoin:miter;stroke-miterlimit:10;"/></g><!--link Admin to A6--><g class="link" data-entity-1="ent0001" data-entity-2="ent0009" data-link-type="dependency" data-source-line="35" id="lnk15"><path d="M53.63,242.79 C62.72,203.27 81.79,146.56 120.04,113 C136.13,98.88 151.4841,90.6335 172.0541,83.8135" fill="none" id="Admin-to-A6" style="stroke:#2C3E50;stroke-width:1;"/><polygon fill="#2C3E50" points="176.8,82.24,166.9985,81.2756,172.0541,83.8135,169.5161,88.8691,176.8,82.24" style="stroke:#2C3E50;stroke-width:1;stroke-linejoin:miter;stroke-miterlimit:10;"/></g><!--link A4 to AI--><g class="link" data-entity-1="ent0007" data-entity-2="ent0002" data-link-type="dependency" data-source-line="37" id="lnk16"><path d="M405.36,241 C435.08,241 459.94,241 482.66,241" fill="none" id="A4-to-AI" style="stroke:#2C3E50;stroke-width:1;"/><polygon fill="#2C3E50" points="487.66,241,478.66,237,482.66,241,478.66,245,487.66,241" style="stroke:#2C3E50;stroke-width:1;stroke-linejoin:miter;stroke-miterlimit:10;"/></g><?plantuml-src VL9DRjD05Dxx54z6GkqYKX8dWLfL9CTr82f5G98Tcy6UsgFORwBn670HgowwOCKDchBh3S1YPIxYcp3sf9Mj86OnUZ_Vp_CRn_HIWkGWM1X929YWlcGSZNJ3S4i4IM1B_0q9wLBcCOMwJJ2CQGlmGG52mJCCN1vp0K_cpMaX0df9ibZEEShN9A5WBcd8AQmNvhz1ItP5OJ0qMbtYIoNznG1rPWU6tjnpFTtZ8g1YNtUUz_lMnFZQ5ifIwfEK_aVgn7jsA3MtJbmrKLrtXE2VzkMXQtdZVksW1pJVPjMl7mXILCKt-CZAUtoFHqwGC3msWQJGX0zWPm4N79cATMy1fwTBwdCCYCYdKyDuN3UOBwlY1cHK5TynjE5DLDuXH7NjqD7SVzpHskqvPnUz_i1-GCNbRrYdLC1JU3TptEF6Tj153squPrLnhPuaovM3X1L3HJZZ12F0C5BDcwsc3hjKgsFabdSvd5V5Jy0_rnZ2Ydpco9DSKwqkTMJ32rRk4aZBdN9K8anvhlY6ebgCfeowbF7Ze9ANEmNB0YRX5GzJ3HztuHCRPkMEWrzVAxr9s9JtogIyHULxYvhN_37DGq6lDwttqqg6xSHg9wDsCcud4oKtqk7YBm00?></g></svg>